<svg width="16" height="16" viewBox="0 0 16 16" fill="none" xmlns="http://www.w3.org/2000/svg">
<g clip-path="url(#clip0_276_2134)">
<path d="M10.62 12.36C10.5534 12.1967 10.4248 12.0664 10.2624 11.9977C10.1 11.9289 9.91691 11.9274 9.75333 11.9933C8.63004 12.4432 7.37662 12.4432 6.25333 11.9933C6.17234 11.9601 6.0856 11.9431 5.99805 11.9433C5.91051 11.9436 5.82386 11.9611 5.74308 11.9948C5.66229 12.0286 5.58894 12.0779 5.52721 12.14C5.46549 12.202 5.41659 12.2757 5.38333 12.3567C5.35006 12.4376 5.33307 12.5244 5.33332 12.6119C5.33358 12.6995 5.35107 12.7861 5.38481 12.8669C5.41855 12.9477 5.46787 13.0211 5.52996 13.0828C5.59204 13.1445 5.66568 13.1934 5.74666 13.2267C7.19181 13.8123 8.80818 13.8123 10.2533 13.2267C10.4167 13.1601 10.547 13.0315 10.6157 12.8691C10.6844 12.7066 10.686 12.5236 10.62 12.36ZM10.6267 3.80667C11.2556 4.23498 11.7703 4.81061 12.1259 5.48339C12.4815 6.15618 12.6671 6.9057 12.6667 7.66667C12.6651 7.86265 12.654 8.05844 12.6333 8.25333C12.6228 8.34088 12.6297 8.42964 12.6535 8.51455C12.6773 8.59945 12.7175 8.67884 12.772 8.74817C12.8265 8.8175 12.8941 8.87543 12.971 8.91864C13.0478 8.96185 13.1324 8.98949 13.22 9C13.3075 9.01051 13.3963 9.00366 13.4812 8.97987C13.5661 8.95607 13.6455 8.91578 13.7148 8.86131C13.7842 8.80683 13.8421 8.73923 13.8853 8.66237C13.9285 8.5855 13.9562 8.50088 13.9667 8.41333C13.9952 8.16553 14.0064 7.91603 14 7.66667C14.0004 6.68902 13.7619 5.72609 13.3053 4.86164C12.8487 3.99718 12.1877 3.25741 11.38 2.70667C11.3078 2.65592 11.2263 2.62001 11.1401 2.60102C11.0539 2.58202 10.9649 2.58032 10.878 2.59601C10.7912 2.61171 10.7084 2.64448 10.6343 2.69243C10.5602 2.74038 10.4964 2.80256 10.4465 2.87536C10.3967 2.94816 10.3618 3.03013 10.3438 3.11652C10.3259 3.20291 10.3253 3.29201 10.3421 3.37864C10.3588 3.46527 10.3926 3.54771 10.4414 3.62119C10.4903 3.69466 10.5533 3.75771 10.6267 3.80667ZM2.78666 8.99333C2.9615 8.97165 3.12064 8.88165 3.22932 8.74299C3.338 8.60433 3.38738 8.42829 3.36666 8.25333C3.35709 8.05789 3.35709 7.86211 3.36666 7.66667C3.3625 6.90868 3.54304 6.16108 3.89268 5.48853C4.24231 4.81598 4.75051 4.23872 5.37333 3.80667C5.44673 3.75771 5.50969 3.69466 5.55854 3.62119C5.6074 3.54771 5.64118 3.46527 5.65794 3.37864C5.67469 3.29201 5.67408 3.20291 5.65614 3.11652C5.6382 3.03013 5.60329 2.94816 5.55344 2.87536C5.50358 2.80256 5.43977 2.74038 5.3657 2.69243C5.29163 2.64448 5.20878 2.61171 5.12195 2.59601C5.03513 2.58032 4.94605 2.58202 4.85988 2.60102C4.77371 2.62001 4.69218 2.65592 4.61999 2.70667C3.81224 3.25741 3.15129 3.99718 2.69466 4.86164C2.23804 5.72609 1.99957 6.68902 1.99999 7.66667C1.99805 7.91634 2.01365 8.16584 2.04666 8.41333C2.06834 8.58817 2.15834 8.74732 2.297 8.856C2.43566 8.96468 2.61171 9.01405 2.78666 8.99333ZM10.4467 6.33333C10.472 6.33412 10.4972 6.32913 10.5203 6.31874C10.5434 6.30834 10.5638 6.29281 10.58 6.27333C10.5949 6.25355 10.6055 6.2309 10.6113 6.20681C10.617 6.18272 10.6177 6.15771 10.6133 6.13333C10.4786 5.53419 10.1442 4.99865 9.66493 4.61468C9.18567 4.23071 8.59009 4.02113 7.97599 4.02036C7.36189 4.01958 6.76578 4.22766 6.28555 4.61042C5.80533 4.99318 5.46954 5.52786 5.33333 6.12667C5.32214 6.14949 5.31633 6.17458 5.31633 6.2C5.31633 6.22542 5.32214 6.25051 5.33333 6.27333C5.36615 6.30903 5.41158 6.33055 5.45999 6.33333H10.4467ZM6.33333 1.66667C6.33333 2.10869 6.50892 2.53262 6.82148 2.84518C7.13404 3.15774 7.55797 3.33333 7.99999 3.33333C8.44202 3.33333 8.86594 3.15774 9.1785 2.84518C9.49107 2.53262 9.66666 2.10869 9.66666 1.66667C9.66666 1.22464 9.49107 0.800716 9.1785 0.488155C8.86594 0.175595 8.44202 0 7.99999 0C7.55797 0 7.13404 0.175595 6.82148 0.488155C6.50892 0.800716 6.33333 1.22464 6.33333 1.66667ZM13.3333 13.6667C12.7114 13.6617 12.1067 13.8712 11.6211 14.2597C11.1354 14.6482 10.7984 15.1922 10.6667 15.8C10.6618 15.8239 10.6622 15.8487 10.6679 15.8724C10.6737 15.8962 10.6845 15.9184 10.6998 15.9375C10.7151 15.9566 10.7344 15.9721 10.7563 15.9829C10.7782 15.9937 10.8022 15.9995 10.8267 16H15.8C15.8504 15.9975 15.898 15.9761 15.9333 15.94C15.9432 15.9168 15.9483 15.8919 15.9483 15.8667C15.9483 15.8415 15.9432 15.8165 15.9333 15.7933C15.8028 15.1978 15.475 14.6639 15.0031 14.2779C14.5312 13.8919 13.9429 13.6765 13.3333 13.6667ZM11.6867 11.3333C11.6867 11.7754 11.8623 12.1993 12.1748 12.5118C12.4874 12.8244 12.9113 13 13.3533 13C13.7954 13 14.2193 12.8244 14.5318 12.5118C14.8444 12.1993 15.02 11.7754 15.02 11.3333C15.02 10.8913 14.8444 10.4674 14.5318 10.1548C14.2193 9.84226 13.7954 9.66667 13.3533 9.66667C12.9113 9.66667 12.4874 9.84226 12.1748 10.1548C11.8623 10.4674 11.6867 10.8913 11.6867 11.3333ZM2.66666 13.6667C2.04473 13.6617 1.44008 13.8712 0.954417 14.2597C0.468756 14.6482 0.131716 15.1922 -7.17212e-06 15.8C-0.00974232 15.8221 -0.0147705 15.8459 -0.0147705 15.87C-0.0147705 15.8941 -0.00974232 15.9179 -7.17212e-06 15.94C0.021508 15.9713 0.053062 15.9943 0.0894322 16.0052C0.125802 16.0161 0.164808 16.0143 0.199993 16H5.16666C5.19236 16.0008 5.21788 15.9956 5.24124 15.9848C5.26459 15.9741 5.28514 15.958 5.30128 15.938C5.31742 15.918 5.32871 15.8945 5.33427 15.8694C5.33983 15.8443 5.33951 15.8183 5.33333 15.7933C5.19913 15.1873 4.86121 14.6456 4.37593 14.2586C3.89065 13.8716 3.28735 13.6627 2.66666 13.6667ZM1.04666 11.3333C1.04666 11.7754 1.22225 12.1993 1.53481 12.5118C1.84738 12.8244 2.2713 13 2.71333 13C3.15535 13 3.57928 12.8244 3.89184 12.5118C4.2044 12.1993 4.37999 11.7754 4.37999 11.3333C4.37999 10.8913 4.2044 10.4674 3.89184 10.1548C3.57928 9.84226 3.15535 9.66667 2.71333 9.66667C2.2713 9.66667 1.84738 9.84226 1.53481 10.1548C1.22225 10.4674 1.04666 10.8913 1.04666 11.3333Z" fill="#1C7731"/>
</g>
<defs>
<clipPath id="clip0_276_2134">
<rect width="16" height="16" fill="white"/>
</clipPath>
</defs>
</svg>
