<svg width="16" height="23" viewBox="0 0 16 23" fill="none" xmlns="http://www.w3.org/2000/svg">
<path d="M14.25 13.1285C14.25 17.2709 11.6423 19.8785 7.5 19.8785C3.35766 19.8785 0.75 17.2709 0.75 13.1285C0.75 8.68336 5.58891 2.68243 7.07297 0.946644C7.12578 0.884973 7.19131 0.835465 7.26506 0.801521C7.33882 0.767576 7.41904 0.75 7.50023 0.75C7.58143 0.75 7.66165 0.767576 7.73541 0.801521C7.80916 0.835465 7.87469 0.884973 7.9275 0.946644C9.41109 2.68243 14.25 8.68336 14.25 13.1285Z" stroke="white" stroke-width="1.5" stroke-miterlimit="10"/>
<path d="M14.375 15.9392C14.375 17.4311 13.7824 18.8618 12.7275 19.9167C11.6726 20.9716 10.2418 21.5642 8.75 21.5642" stroke="white" stroke-width="1.5" stroke-linecap="round" stroke-linejoin="round"/>
</svg>
