<svg width="18" height="18" viewBox="0 0 18 18" fill="none" xmlns="http://www.w3.org/2000/svg">
<path d="M6.18835 3.10323C7.37527 2.78505 8.62503 2.78492 9.81202 3.10286C10.999 3.4208 12.0814 4.04561 12.9503 4.91447C13.8193 5.78333 14.4442 6.86563 14.7623 8.05257C15.0804 9.23951 15.0804 10.4893 14.7624 11.6762" stroke="white" stroke-width="2" stroke-linecap="round" stroke-linejoin="round"/>
<path d="M12.9504 14.8142C11.6375 16.1271 9.85697 16.8646 8.00036 16.8646C6.14375 16.8646 4.36318 16.1271 3.05036 14.8142C1.73754 13.5014 1 11.7209 1 9.86425C1 8.00764 1.73754 6.22707 3.05036 4.91425" stroke="white" stroke-width="2"/>
<path d="M15.0004 16.8643L1.00037 2.86426" stroke="white" stroke-width="2" stroke-linecap="round" stroke-linejoin="round"/>
<path d="M14.0354 1.00024C14.7138 1.18193 15.3324 1.53904 15.829 2.03564C16.3256 2.53225 16.6827 3.15085 16.8644 3.82924" stroke="white" stroke-width="2" stroke-linecap="round"/>
</svg>
