<svg width="20" height="18" viewBox="0 0 20 18" fill="none" xmlns="http://www.w3.org/2000/svg">
<path d="M6.9742 0.562389C6.92943 0.389126 6.82419 0.237579 6.67748 0.135115C6.53077 0.0326504 6.35225 -0.0139784 6.17417 0.00364871C5.99609 0.0212758 5.83018 0.101997 5.7064 0.231235C5.58262 0.360474 5.50913 0.529712 5.4992 0.708389C3.6792 1.30339 2.5482 2.22539 1.8752 3.29739C1.1672 4.42339 1.0262 5.62139 1.0022 6.54339L1.0002 6.63639L0.493199 7.26939C0.299058 7.51201 0.157276 7.79222 0.0767888 8.09235C-0.00369834 8.39248 -0.0211456 8.70603 0.0255462 9.01324C0.072238 9.32044 0.182057 9.61465 0.348082 9.87731C0.514107 10.14 0.732739 10.3654 0.9902 10.5394L10.0572 16.6704C11.3393 17.5373 12.8515 18.0005 14.3992 18.0004H16.6072C17.092 18.0004 17.5712 17.8965 18.0125 17.6957C18.4538 17.4948 18.8469 17.2017 19.1653 16.8361C19.4837 16.4705 19.72 16.0409 19.8584 15.5762C19.9967 15.1115 20.0338 14.6226 19.9672 14.1424C19.7292 12.4824 18.2942 11.3324 17.0152 10.7154C16.6002 10.5154 16.2572 10.2554 16.0292 9.91939L13.4462 5.47539C13.6255 5.42518 13.7798 5.31006 13.8789 5.15243C13.978 4.99479 14.015 4.80591 13.9825 4.62253C13.9501 4.43916 13.8506 4.27441 13.7034 4.16034C13.5562 4.04627 13.3719 3.99104 13.1862 4.00539C12.8555 4.03072 12.5275 4.03672 12.2022 4.02339C9.8422 3.92539 7.8372 2.82339 7.1282 1.03639C7.06706 0.881743 7.01563 0.723436 6.9742 0.562389ZM4.3912 2.86239L5.9782 5.60739C6.07664 5.77804 6.14051 5.96641 6.16615 6.16174C6.19179 6.35707 6.1787 6.55554 6.12762 6.74581C6.07655 6.93609 5.98849 7.11443 5.86848 7.27067C5.74848 7.42691 5.59887 7.55798 5.4282 7.65639L5.0432 7.87839L2.5232 6.17839C2.5752 5.48139 2.7302 4.75739 3.1462 4.09439C3.4122 3.67039 3.8042 3.24439 4.3932 2.86239M6.4352 8.81639L9.2282 7.20339C9.39885 7.10494 9.58722 7.04108 9.78255 7.01544C9.97788 6.9898 10.1764 7.00289 10.3666 7.05397C10.5569 7.10504 10.7352 7.1931 10.8915 7.3131C11.0477 7.43311 11.1788 7.58272 11.2772 7.75339L11.8012 8.66039C11.8996 8.83104 11.9635 9.01941 11.9891 9.21474C12.0148 9.41007 12.0017 9.60854 11.9506 9.79881C11.8995 9.98909 11.8115 10.1674 11.6915 10.3237C11.5715 10.4799 11.4219 10.611 11.2512 10.7094L10.1682 11.3354L6.4352 8.81639ZM14.3692 14.9994H18.4612C18.3718 15.4242 18.139 15.8054 17.8017 16.0787C17.4644 16.352 17.0433 16.501 16.6092 16.5004H14.4012C13.1534 16.5006 11.934 16.1272 10.9002 15.4284L1.8322 9.29639C1.74635 9.23842 1.67345 9.1633 1.61807 9.07576C1.5627 8.98821 1.52606 8.89015 1.51047 8.78775C1.49487 8.68534 1.50066 8.58082 1.52746 8.48076C1.55426 8.3807 1.6015 8.28728 1.6662 8.20639L2.0812 7.68839L11.7132 14.1864C12.4978 14.716 13.4226 14.9991 14.3692 14.9994Z" fill="#FFCC00"/>
</svg>
